<?xml version="1.0" standalone="no"?>
<!DOCTYPE svg PUBLIC "-//W3C//DTD SVG 20010904//EN"
 "http://www.w3.org/TR/2001/REC-SVG-20010904/DTD/svg10.dtd">
<svg version="1.0" xmlns="http://www.w3.org/2000/svg"
 width="600.000000pt" height="606.000000pt" viewBox="0 0 600.000000 606.000000"
 preserveAspectRatio="xMidYMid meet">

<g transform="translate(0.000000,606.000000) scale(0.100000,-0.100000)"
fill="#000000" stroke="none">
<path d="M1541 5968 c-69 -179 -145 -327 -236 -463 -158 -235 -342 -410 -582
-551 -54 -32 -100 -59 -102 -61 -2 -1 25 -46 60 -100 119 -183 217 -396 272
-588 45 -157 59 -253 64 -437 10 -320 -26 -529 -192 -1103 -136 -473 -174
-722 -144 -942 40 -299 201 -524 534 -748 201 -134 387 -222 773 -365 490
-182 621 -239 764 -332 92 -61 182 -146 225 -213 15 -25 30 -45 33 -45 3 0 14
17 25 37 11 20 49 66 85 103 135 137 312 229 765 395 505 186 676 264 900 410
135 88 169 115 269 213 130 128 212 259 257 412 17 59 22 110 26 241 8 250
-15 374 -167 913 -45 160 -92 338 -105 396 -146 644 -62 1140 282 1669 30 46
53 84 51 85 -2 2 -30 17 -63 36 -376 208 -663 544 -835 978 -18 45 -36 82 -40
82 -5 0 -28 -8 -52 -18 -157 -67 -460 -153 -673 -191 -245 -45 -447 -62 -731
-62 -365 0 -665 37 -994 122 -122 32 -367 112 -412 135 -37 19 -47 18 -57 -8z
m154 -144 c102 -37 328 -100 463 -128 489 -103 1041 -114 1537 -31 208 35 360
73 568 141 76 25 140 44 142 42 1 -2 29 -59 62 -128 166 -349 390 -609 701
-815 39 -26 72 -51 72 -54 0 -3 -10 -22 -21 -41 -328 -537 -406 -1049 -258
-1699 17 -73 60 -235 95 -360 149 -519 177 -658 177 -876 1 -171 -13 -242 -68
-362 -103 -224 -329 -422 -685 -599 -155 -77 -274 -126 -610 -249 -474 -174
-641 -258 -797 -400 l-63 -57 -57 52 c-149 133 -339 231 -728 375 -523 193
-731 286 -925 412 -478 313 -596 610 -474 1196 14 65 59 238 100 385 94 333
137 506 163 647 100 540 12 1029 -268 1495 l-50 84 61 39 c163 103 353 274
471 423 104 133 212 314 280 472 14 34 30 62 34 62 5 0 40 -12 78 -26z"/>
<path d="M1597 5635 c-157 -311 -393 -585 -656 -764 l-61 -42 34 -62 c70 -128
83 -154 123 -247 141 -329 197 -678 163 -1021 -23 -228 -57 -387 -169 -786
-139 -496 -160 -592 -168 -788 -7 -178 9 -271 72 -401 90 -186 309 -375 616
-529 153 -77 280 -130 579 -240 466 -172 663 -264 799 -373 31 -25 61 -49 67
-54 8 -5 44 16 104 61 50 38 140 94 198 124 142 74 257 120 627 255 352 128
586 238 770 360 266 177 401 348 446 566 44 213 13 428 -141 966 -82 289 -133
497 -161 660 -20 115 -23 170 -23 375 0 205 3 257 22 355 48 258 142 510 270
727 l30 50 -62 44 c-167 117 -361 306 -470 459 -75 104 -174 270 -212 354 -16
36 -34 66 -40 66 -5 0 -50 -14 -100 -30 -200 -68 -510 -134 -789 -167 -177
-21 -703 -24 -875 -5 -269 30 -523 81 -765 153 -77 23 -147 43 -155 45 -11 4
-32 -29 -73 -111z m1883 -337 c0 -77 -105 -295 -249 -516 -41 -62 -71 -116
-67 -120 8 -8 3 -15 93 122 40 59 105 174 145 255 40 80 75 148 76 151 2 3 12
-6 23 -19 25 -31 25 -105 -1 -166 -33 -77 -94 -175 -195 -314 -53 -72 -95
-137 -92 -144 2 -6 42 40 89 103 103 139 146 206 190 294 18 36 35 66 39 66
14 0 31 -104 25 -153 -7 -66 -75 -167 -217 -325 -55 -62 -98 -116 -94 -120 13
-13 211 212 297 338 l17 25 0 -49 c1 -75 -25 -116 -175 -279 -75 -81 -134
-151 -130 -154 8 -9 36 19 169 164 128 141 137 142 137 21 0 -66 -1 -68 -41
-105 -54 -50 -118 -95 -206 -146 -67 -38 -88 -57 -63 -57 20 0 199 114 251
159 l52 45 -7 -43 c-4 -24 -16 -57 -27 -72 -24 -34 -104 -97 -209 -164 -41
-27 -69 -50 -62 -53 17 -5 86 37 188 113 l84 64 0 -30 c0 -82 -93 -164 -252
-224 -42 -16 -64 -35 -39 -35 20 0 154 61 196 90 50 34 56 27 31 -33 -14 -35
-74 -71 -188 -117 -51 -20 -76 -40 -49 -40 15 0 167 67 197 86 l27 18 -8 -24
c-16 -52 -62 -83 -170 -116 -62 -18 -83 -30 -73 -39 5 -5 122 29 171 50 26 11
22 -18 -9 -55 -37 -43 -74 -60 -149 -67 -36 -3 -65 -10 -65 -16 0 -6 28 -8 77
-3 l77 6 -30 -31 c-27 -28 -157 -99 -182 -99 -6 0 -13 28 -17 63 -8 81 -8 83
11 212 9 61 18 135 19 165 2 30 7 82 10 115 15 145 -3 336 -38 385 -9 13 -17
38 -17 55 0 17 -11 54 -26 82 l-25 52 107 132 c171 212 291 412 335 558 l13
44 13 -29 c6 -16 12 -50 13 -76z m-823 10 c39 -42 70 -103 84 -169 15 -68 2
-133 -62 -306 -52 -142 -55 -153 -40 -153 5 0 20 33 34 73 14 39 35 99 48 132
12 33 30 93 39 134 l16 74 29 -26 c28 -24 30 -30 29 -94 -1 -48 -13 -103 -39
-188 -21 -66 -44 -139 -51 -163 -10 -32 -10 -42 -2 -40 13 5 55 126 92 263 12
44 26 82 31 85 6 3 16 -12 23 -33 17 -54 1 -144 -48 -268 -39 -96 -50 -144
-31 -124 12 12 68 152 88 220 l15 50 23 -29 c40 -50 38 -74 -9 -136 -75 -98
-126 -178 -170 -269 -56 -114 -71 -210 -64 -406 6 -172 5 -178 -28 -163 -21
10 -23 16 -18 48 4 23 2 40 -5 44 -6 4 -11 18 -11 32 0 17 -9 30 -30 42 -32
18 -36 27 -20 37 19 12 10 33 -20 45 -25 10 -28 15 -18 27 10 13 8 19 -11 34
-13 11 -30 19 -37 19 -12 0 -12 4 -2 21 12 18 9 24 -26 54 l-39 33 6 113 c5
85 16 149 42 249 93 348 116 443 131 550 9 63 14 139 12 168 -3 28 -2 52 2 52
3 0 20 -15 37 -32z m351 -702 c18 -36 26 -89 18 -121 -4 -14 -31 -53 -61 -85
-49 -54 -72 -92 -45 -75 18 11 104 106 116 128 l12 20 11 -21 c30 -56 6 -99
-87 -156 -23 -15 -40 -31 -37 -36 7 -11 92 39 120 70 23 26 35 17 35 -27 0
-48 -29 -92 -95 -143 -49 -38 -67 -60 -49 -60 12 0 104 72 123 96 18 23 20 24
26 5 7 -23 -18 -88 -43 -108 -9 -8 -38 -28 -65 -44 -26 -17 -44 -35 -41 -40 5
-9 54 16 103 53 33 25 42 22 30 -9 -14 -38 -35 -60 -96 -99 -29 -19 -53 -38
-53 -44 0 -13 26 0 87 41 55 38 67 37 59 -3 -11 -53 -31 -75 -86 -89 -27 -7
-50 -16 -50 -21 0 -12 20 -10 73 6 50 15 53 13 41 -32 -5 -17 -20 -26 -65 -39
-33 -9 -59 -20 -59 -25 0 -12 20 -10 73 6 44 13 47 13 47 -5 0 -30 -35 -57
-84 -64 -41 -7 -65 -20 -54 -30 3 -4 73 10 111 21 13 4 17 -1 17 -21 0 -22 -9
-30 -55 -51 -55 -25 -78 -44 -53 -44 7 0 33 9 57 20 48 22 61 19 61 -13 0 -29
-10 -43 -38 -52 -48 -14 -132 -57 -132 -66 0 -12 -4 -13 75 20 39 17 72 26 73
20 2 -6 -8 -28 -22 -50 -30 -45 -30 -44 57 -53 72 -8 113 -28 225 -113 l88
-66 87 -3 c290 -11 403 -173 356 -510 l-12 -81 51 -64 c58 -75 117 -172 136
-227 8 -22 17 -69 21 -105 l7 -67 -48 -21 c-32 -15 -43 -24 -32 -26 9 -2 26 1
37 6 25 14 31 14 31 0 0 -5 -16 -17 -35 -25 -41 -17 -39 -39 1 -24 32 12 34
12 34 0 0 -6 -11 -16 -25 -22 -32 -14 -33 -32 -1 -24 37 9 42 -13 7 -25 -40
-14 -41 -33 -1 -24 40 9 40 -13 -1 -27 -20 -7 -27 -14 -21 -20 6 -6 18 -6 32
2 28 15 38 5 42 -45 3 -39 1 -41 -42 -62 -25 -12 -62 -25 -84 -29 -34 -6 -38
-5 -33 12 3 11 8 31 11 47 6 24 10 27 51 27 54 0 60 18 8 22 l-37 3 -18 100
c-9 55 -21 132 -26 172 -9 77 -9 78 52 97 14 5 16 10 9 17 -8 8 -20 7 -42 -4
-17 -8 -33 -12 -36 -7 -7 11 14 26 48 34 15 4 25 11 22 16 -8 14 -25 12 -57
-4 -25 -13 -38 -12 -38 4 0 4 13 13 30 20 16 7 27 16 24 21 -3 5 -20 2 -39 -5
-18 -8 -36 -12 -39 -8 -13 12 -5 22 27 30 28 8 29 11 13 17 -12 6 -29 3 -47
-8 -36 -20 -48 -4 -14 19 25 16 33 34 16 34 -5 0 -22 -11 -38 -24 -28 -23 -29
-24 -62 -6 l-34 17 47 5 c45 5 64 13 55 22 -2 3 -37 1 -76 -4 -67 -9 -78 -7
-172 24 -151 50 -194 88 -273 238 -42 82 -88 122 -130 116 -19 -2 -15 -7 26
-28 27 -14 57 -39 68 -57 l20 -33 -111 0 -110 0 -28 47 c-20 35 -29 43 -31 30
-2 -10 4 -29 13 -43 9 -14 14 -28 11 -32 -8 -7 -34 26 -47 61 -11 28 -29 37
-29 15 0 -7 9 -28 20 -46 19 -31 19 -33 3 -30 -10 2 -29 23 -43 48 -28 51 -42
33 -15 -20 9 -18 14 -34 12 -36 -7 -7 -57 56 -57 72 0 8 -4 14 -10 14 -17 0
-11 -30 12 -62 14 -20 17 -29 7 -26 -13 4 -53 56 -62 81 -2 7 -8 9 -12 5 -4
-4 2 -25 14 -48 11 -22 17 -40 12 -40 -11 0 -43 44 -56 75 -8 19 -9 19 -12 -2
-2 -12 3 -33 13 -47 9 -14 12 -26 6 -26 -11 0 -44 43 -57 75 -7 17 -9 18 -12
3 -2 -9 3 -30 12 -47 8 -17 12 -31 7 -31 -13 0 -39 32 -47 59 -5 15 -10 20
-17 13 -7 -7 -5 -21 6 -43 9 -18 14 -34 12 -36 -6 -7 -56 58 -56 73 0 8 -4 14
-10 14 -15 0 -12 -33 5 -56 19 -25 19 -35 0 -28 -8 3 -20 21 -27 40 -6 19 -16
34 -21 34 -9 0 -6 -31 7 -62 7 -14 0 -16 -56 -11 -79 6 -128 18 -153 37 -19
15 -19 15 12 16 50 0 133 20 133 32 0 7 -12 8 -32 4 -101 -22 -132 -19 -181
12 -26 16 -75 40 -110 53 -34 12 -65 28 -69 33 -4 6 -8 30 -8 54 0 23 -4 42
-10 42 -5 0 -10 -21 -10 -46 0 -65 -24 -53 -28 14 -2 29 -7 52 -13 52 -10 0
-13 -19 -10 -68 3 -31 1 -33 -18 -22 -17 8 -21 20 -21 55 0 25 -4 45 -10 45
-5 0 -10 -21 -10 -46 0 -38 -3 -45 -17 -42 -13 2 -19 15 -21 46 -4 54 -22 55
-22 2 0 -36 -2 -40 -18 -31 -11 6 -19 23 -20 48 -2 21 -5 45 -7 53 -4 12 9 15
78 15 45 0 132 4 192 9 100 7 115 6 163 -13 62 -25 71 -9 10 19 -28 13 -66 20
-106 20 -59 0 -63 2 -73 28 -14 36 -2 89 50 224 22 59 41 123 41 142 0 20 4
36 10 36 20 0 40 63 50 155 10 95 21 127 59 175 l21 25 0 -30 c0 -20 8 -36 25
-49 14 -10 25 -23 25 -27 0 -5 13 -23 29 -40 l30 -31 4 34 c2 20 4 10 6 -27 1
-33 6 -67 11 -75 11 -17 11 -17 13 67 2 61 1 63 -25 69 -21 4 -28 12 -28 30 0
13 -4 24 -10 24 -5 0 -10 9 -10 20 0 25 -17 26 -23 3 -4 -14 -5 -12 -6 5 0 12
-5 22 -11 22 -6 0 -10 34 -10 81 0 51 -4 78 -10 74 -5 -3 -10 -28 -10 -55 0
-39 -7 -58 -36 -101 -53 -80 -53 -80 -65 -189 -13 -134 -17 -140 -97 -140 -96
0 -157 34 -163 90 -1 14 1 59 5 101 8 72 6 80 -18 121 -38 65 -36 126 5 173
l31 35 17 -32 c16 -31 41 -49 41 -29 0 5 5 22 11 38 l11 28 19 -42 c27 -64 46
-56 51 22 2 35 6 67 9 69 3 3 19 0 36 -6 44 -17 65 -6 53 27 -16 41 -12 180 5
223 16 36 52 82 66 82 12 0 29 -87 29 -149 0 -53 3 -61 18 -61 10 0 30 -12 45
-27 14 -16 38 -37 52 -47 l28 -19 -23 -17 c-26 -20 -19 -40 13 -40 12 0 29 -5
37 -10 13 -9 13 -12 -2 -21 -29 -16 -22 -39 11 -39 36 0 50 -19 28 -35 -26
-19 -21 -28 25 -47 40 -17 41 -18 23 -38 -17 -19 -17 -20 10 -30 27 -10 29
-22 9 -73 -3 -10 7 -21 33 -33 28 -14 39 -26 41 -47 5 -38 -23 -126 -53 -171
-23 -35 -26 -64 -4 -51 11 8 12 -18 1 -30 -5 -6 -6 -50 -2 -100 4 -61 9 -84
14 -72 6 12 11 15 16 7 10 -16 38 -1 43 23 3 18 5 17 6 -5 0 -16 6 -28 12 -28
8 0 9 -15 5 -45 -5 -29 -4 -45 3 -45 6 0 11 7 11 16 0 8 5 12 10 9 6 -3 10
-17 10 -30 0 -13 5 -27 11 -31 8 -4 9 16 4 72 -8 86 -11 96 -25 74 -5 -8 -13
-11 -17 -6 -4 5 -2 11 5 13 15 6 17 109 2 118 -5 3 -10 1 -10 -5 0 -6 -4 -9
-9 -5 -5 3 -12 1 -16 -5 -28 -45 -35 124 -8 205 13 40 16 90 15 255 -2 312 13
391 107 545 66 108 153 226 165 222 6 -2 17 -16 24 -31z m-803 -268 c8 -24 10
-218 2 -218 -4 0 -15 9 -24 20 -10 11 -20 20 -24 20 -14 0 -39 -70 -40 -112
l-1 -43 -11 43 c-5 23 -15 42 -22 42 -13 0 -40 -27 -48 -50 -3 -8 -6 0 -6 18
-1 43 -21 42 -74 -7 -23 -21 -57 -41 -75 -44 l-32 -7 6 43 c9 58 35 116 83
180 51 70 76 87 123 87 27 0 40 5 48 20 8 15 21 20 51 20 23 0 41 -5 44 -12z
m-298 -49 c32 -12 34 -22 11 -58 -23 -36 -24 -35 -63 32 l-27 48 28 -7 c16 -4
39 -10 51 -15z m770 -931 c-3 -7 -5 -2 -5 12 0 14 2 19 5 13 2 -7 2 -19 0 -25z
m30 10 c-3 -8 -6 -5 -6 6 -1 11 2 17 5 13 3 -3 4 -12 1 -19z m1488 -7 c53 -24
72 -47 140 -166 76 -132 133 -205 212 -270 35 -29 78 -72 95 -95 40 -55 68
-156 68 -248 l0 -73 -26 20 c-15 12 -37 21 -50 21 -23 0 -23 0 -9 -47 8 -27
15 -59 15 -73 -1 -24 -1 -24 -33 11 -41 47 -104 92 -115 85 -6 -3 -13 -21 -16
-40 -4 -18 -21 -53 -39 -77 l-32 -44 -6 85 c-7 98 -26 170 -45 170 -8 0 -16
-11 -20 -25 -9 -36 -17 -31 -37 25 -18 49 -37 66 -37 33 0 -10 -5 -36 -11 -57
l-11 -39 -24 44 c-14 24 -47 73 -75 110 -83 113 -94 145 -94 285 0 98 -3 125
-18 147 -30 47 -72 35 -166 -47 l-64 -56 -19 30 c-10 17 -18 34 -18 38 0 11
197 189 242 219 42 28 103 52 133 52 11 0 38 -8 60 -18z m-2442 -277 c65 -29
63 -23 72 -200 l5 -111 -45 -42 c-25 -23 -45 -44 -45 -46 0 -15 29 0 62 32 54
53 51 17 -3 -42 -51 -56 -43 -73 9 -22 21 21 41 34 45 31 16 -16 5 -53 -20
-72 -16 -11 -25 -24 -20 -28 4 -4 20 2 36 14 l28 21 27 -28 c24 -25 26 -33 26
-124 l0 -98 -22 12 c-37 20 -143 135 -171 187 -24 44 -45 116 -61 213 -4 20
-20 57 -37 82 -53 80 -50 194 5 232 28 21 45 19 109 -11z m-170 -121 c5 -72 4
-80 -18 -103 -34 -36 -45 -90 -45 -220 l0 -115 -32 -27 c-39 -32 -16 -40 24
-8 l25 19 28 -29 28 -29 -31 -48 c-17 -27 -44 -61 -60 -76 l-29 -28 -25 33
c-43 57 -60 100 -66 166 l-5 64 32 -16 c46 -25 60 -8 15 18 -22 12 -40 30 -42
40 -4 17 -2 17 26 -3 17 -11 38 -21 49 -21 17 1 17 2 -2 15 -39 29 -65 57 -65
72 0 11 9 8 31 -11 53 -45 65 -29 14 18 -28 27 -44 49 -40 56 5 8 16 4 34 -14
25 -24 51 -34 51 -21 0 3 -16 19 -35 36 -45 40 -49 72 -4 35 30 -26 49 -33 49
-18 0 4 -16 20 -35 35 -19 15 -35 35 -35 43 0 14 2 14 16 0 20 -21 54 -39 61
-33 2 3 -12 21 -33 40 l-38 34 20 74 c18 69 21 75 54 86 73 25 76 22 83 -64z
m427 -90 c171 -52 300 -117 277 -139 -10 -10 -157 -6 -215 6 -26 6 -86 22
-134 37 -74 22 -88 29 -88 47 0 12 -3 38 -7 59 -6 38 -6 38 23 32 16 -4 81
-22 144 -42z m1234 -207 c46 -78 80 -116 139 -156 65 -45 113 -105 167 -210
25 -49 25 -72 0 -95 -30 -27 -67 -22 -106 16 -23 22 -34 28 -34 18 0 -9 9 -24
21 -35 l21 -19 -34 -7 c-18 -4 -64 -4 -103 -1 -138 11 -314 -36 -334 -90 -6
-15 -25 -30 -48 -39 -59 -24 -142 -42 -150 -35 -12 13 109 204 135 215 8 3 28
-2 44 -11 17 -9 34 -17 40 -17 16 0 -21 38 -43 45 -24 8 -24 22 0 35 25 13 48
4 56 -21 4 -10 11 -19 16 -19 16 0 10 20 -15 45 l-23 23 22 12 c32 17 61 4 76
-33 12 -30 12 -31 16 -8 3 13 0 28 -6 34 -16 16 -13 27 7 27 22 0 47 -25 56
-57 4 -13 12 -23 18 -23 5 0 7 7 4 16 -3 9 -9 27 -13 42 -5 21 -3 24 11 19 10
-4 22 -7 27 -7 5 0 9 -13 9 -29 0 -17 5 -33 10 -36 6 -4 10 7 10 24 0 24 4 31
20 31 31 0 24 16 -19 42 -39 23 -146 109 -229 183 -44 39 -102 111 -102 126 0
14 35 17 179 16 129 -2 145 -4 155 -21z m-1216 -223 c4 -111 1 -115 -53 -94
-18 7 -20 17 -20 105 l0 97 35 -3 35 -3 3 -102z m-389 -12 c11 -7 4 -27 -34
-100 -27 -50 -51 -91 -54 -91 -11 1 -51 38 -51 47 0 5 11 20 25 33 14 13 39
45 56 72 33 51 36 53 58 39z m1324 -452 c-11 -11 -175 -70 -181 -65 -2 3 -5
19 -5 37 -2 31 -1 32 68 49 39 9 81 22 95 27 22 9 25 8 28 -14 2 -14 0 -29 -5
-34z m1107 -181 c0 -56 -9 -64 -91 -88 -44 -12 -82 -21 -84 -18 -3 2 -7 18
-11 34 -6 29 -5 30 53 42 32 6 72 21 88 31 39 26 45 25 45 -1z m-2276 -17 c3
-5 -11 -27 -32 -49 -87 -93 -100 -125 -109 -267 l-6 -101 -156 -13 c-142 -11
-290 -5 -308 12 -10 11 138 85 241 121 16 5 9 13 -38 41 -32 19 -80 51 -107
71 -53 39 -121 113 -114 124 2 4 55 10 117 14 62 4 172 18 243 31 135 24 260
31 269 16z m2691 -16 c83 -14 199 -28 258 -31 59 -4 110 -10 112 -14 10 -15
-152 -156 -219 -191 l-68 -36 91 -37 c113 -45 179 -85 161 -96 -26 -16 -188
-20 -320 -7 l-135 12 -6 110 c-6 105 -26 185 -47 185 -5 0 -15 14 -22 30 -7
17 -26 42 -42 55 -16 14 -26 29 -23 35 10 17 101 11 260 -15z m-2696 -210 c36
-18 65 -18 297 1 76 6 83 5 93 -14 9 -17 4 -27 -38 -70 -61 -62 -81 -119 -88
-244 l-6 -97 -31 -11 c-42 -15 -183 -24 -239 -16 -46 7 -47 8 -61 59 -34 119
-44 279 -25 383 14 77 18 82 43 52 12 -14 36 -33 55 -43z m2532 23 c26 -97 -3
-424 -40 -461 -17 -17 -214 -16 -272 1 l-46 14 5 48 c6 65 -14 173 -43 230
-13 26 -41 61 -62 78 -32 26 -36 34 -27 49 13 20 67 22 249 8 113 -8 158 3
191 49 11 14 22 26 26 26 4 0 12 -19 19 -42z m-968 -139 c313 -63 407 -63 460
1 l25 29 30 -30 c67 -69 89 -270 43 -391 -12 -32 -26 -60 -29 -62 -4 -2 -60
-9 -124 -15 -150 -14 -277 -2 -473 47 -134 33 -164 37 -280 37 -117 0 -144 -4
-275 -37 -189 -49 -324 -62 -472 -47 -62 6 -118 15 -125 21 -39 32 -65 216
-43 317 13 64 45 128 72 145 13 8 22 5 41 -16 56 -60 157 -61 436 -3 320 66
404 67 714 4z"/>
<path d="M2200 3923 c-38 -13 -53 -63 -20 -63 11 0 20 1 20 3 0 1 4 17 9 35 5
17 9 32 8 31 -1 0 -9 -3 -17 -6z"/>
<path d="M1980 3892 c0 -22 13 -42 27 -42 21 0 12 44 -9 48 -10 2 -18 -1 -18
-6z"/>
<path d="M2097 3843 c-11 -10 -8 -93 3 -93 6 0 10 23 10 50 0 51 -1 55 -13 43z"/>
<path d="M2336 3732 c-3 -5 -10 -30 -16 -55 -11 -50 1 -87 27 -87 7 0 13 -5
13 -11 0 -5 5 -7 10 -4 6 4 8 15 5 25 -3 10 1 35 10 55 19 46 19 49 1 42 -10
-4 -13 -1 -9 9 4 10 0 12 -11 8 -12 -5 -15 -2 -10 10 6 16 -11 23 -20 8z"/>
<path d="M2486 3704 c-7 -19 3 -64 15 -64 5 0 9 -11 9 -25 0 -14 5 -25 10 -25
6 0 10 -11 10 -25 0 -14 5 -25 10 -25 6 0 10 -11 10 -25 0 -51 17 -23 23 37 6
66 2 82 -13 58 -8 -13 -10 -12 -10 3 0 10 -11 29 -25 43 -13 13 -22 30 -19 38
3 8 1 17 -4 20 -6 3 -13 -1 -16 -10z"/>
<path d="M2812 3644 c-7 -26 -22 -60 -33 -76 -21 -29 -20 -46 1 -33 17 10 60
106 60 133 0 37 -15 25 -28 -24z"/>
<path d="M2123 3650 c-37 -22 -44 -55 -13 -65 35 -11 80 28 80 69 0 22 -28 20
-67 -4z"/>
<path d="M2412 3615 c-32 -34 -29 -81 8 -117 17 -15 30 -37 30 -48 0 -11 4
-20 9 -20 6 0 9 33 8 75 -2 71 -8 91 -21 63 -3 -7 -5 4 -4 24 3 48 -2 52 -30
23z m5 -62 c-3 -10 -5 -4 -5 12 0 17 2 24 5 18 2 -7 2 -21 0 -30z"/>
<path d="M2847 3545 c-3 -19 -16 -49 -27 -66 -22 -30 -22 -47 -1 -34 18 11 51
82 51 110 0 37 -17 30 -23 -10z"/>
<path d="M2587 3543 c-11 -10 -8 -63 3 -63 6 0 10 16 10 35 0 36 -2 40 -13 28z"/>
<path d="M2510 3508 c0 -10 -4 -18 -10 -18 -5 0 -10 -24 -10 -52 1 -46 2 -51
14 -35 18 23 29 22 21 -4 -5 -15 -3 -20 6 -17 23 8 22 89 -1 118 -16 20 -20
22 -20 8z"/>
<path d="M2256 3483 c-3 -4 -6 -16 -6 -27 0 -12 -11 -66 -25 -121 -24 -98 -31
-168 -19 -199 11 -30 22 -6 17 38 -4 30 4 81 22 155 l28 110 44 -30 c24 -17
49 -29 55 -27 7 3 -1 13 -17 24 -16 10 -43 33 -61 51 -17 18 -34 29 -38 26z"/>
<path d="M2560 3431 c0 -28 5 -51 10 -51 6 0 10 20 10 44 0 25 -4 48 -10 51
-6 4 -10 -13 -10 -44z"/>
<path d="M2587 3393 c-5 -71 -2 -87 13 -63 12 19 13 130 1 130 -4 0 -11 -30
-14 -67z"/>
<path d="M2760 3364 c0 -14 4 -23 10 -19 6 3 10 15 10 26 0 10 -4 19 -10 19
-5 0 -10 -12 -10 -26z"/>
<path d="M2280 3365 c0 -13 65 -65 82 -65 19 0 5 19 -37 48 -31 22 -45 27 -45
17z"/>
<path d="M2260 3290 c0 -14 55 -40 85 -40 14 0 25 5 25 10 0 6 -12 10 -27 10
-16 0 -37 7 -47 15 -23 17 -36 19 -36 5z"/>
<path d="M2252 3238 c6 -17 65 -51 80 -46 7 3 -6 17 -29 31 -48 30 -57 33 -51
15z"/>
<path d="M2240 3173 c0 -10 66 -53 80 -53 19 0 9 15 -25 38 -35 22 -55 28 -55
15z"/>
<path d="M3370 3136 c0 -5 18 -28 40 -52 22 -24 40 -38 40 -31 0 7 -18 31 -40
52 -22 21 -40 35 -40 31z"/>
<path d="M3470 3134 c0 -13 58 -69 65 -63 2 3 -11 21 -30 39 -19 19 -35 29
-35 24z"/>
<path d="M3550 3095 c13 -14 25 -25 27 -25 9 0 1 20 -13 34 -26 26 -39 18 -14
-9z"/>
<path d="M3356 3080 c16 -16 30 -27 32 -25 9 9 -29 55 -44 55 -11 0 -8 -8 12
-30z"/>
<path d="M3452 3083 c15 -15 31 -23 35 -19 9 8 -32 46 -50 46 -7 0 1 -12 15
-27z"/>
<path d="M3605 3065 c4 -11 7 -30 6 -42 -1 -25 33 -50 44 -33 3 5 0 10 -8 10
-8 0 -17 7 -21 15 -4 12 0 14 22 9 16 -4 23 -3 17 2 -59 53 -68 59 -60 39z"/>
<path d="M3320 3035 c0 -14 5 -25 10 -25 6 0 10 -12 10 -26 0 -15 4 -23 11
-19 6 4 17 -1 25 -11 15 -18 15 -18 10 -1 -3 10 -6 28 -6 40 -1 22 -1 22 -16
2 -15 -19 -15 -19 -8 9 6 25 4 28 -10 23 -14 -6 -16 -3 -11 13 4 11 2 20 -4
20 -6 0 -11 -11 -11 -25z"/>
<path d="M3600 2982 c0 -16 41 -42 54 -35 6 4 4 8 -4 11 -8 3 -23 11 -32 20
-11 9 -18 10 -18 4z"/>
<path d="M2105 2960 c-8 -24 3 -80 15 -80 4 0 7 23 7 50 -1 52 -11 65 -22 30z"/>
<path d="M3401 2958 c-1 -15 4 -30 9 -33 12 -7 12 12 0 40 -8 18 -9 17 -9 -7z"/>
<path d="M3430 2958 c0 -17 18 -44 24 -37 8 7 -5 49 -15 49 -5 0 -9 -6 -9 -12z"/>
<path d="M2175 2926 c-4 -20 -4 -44 0 -53 6 -14 10 -7 17 26 6 28 6 47 0 53
-7 7 -13 -1 -17 -26z"/>
<path d="M2239 2953 c-1 -4 0 -26 1 -48 3 -61 20 -68 20 -8 0 29 -4 55 -10 58
-5 3 -10 3 -11 -2z"/>
<path d="M3481 2951 c-7 -5 -10 -14 -7 -20 9 -15 37 -14 34 1 -2 6 8 15 22 19
24 7 24 7 -5 8 -16 0 -36 -3 -44 -8z"/>
<path d="M3563 2943 c-23 -5 -53 -33 -35 -33 6 0 14 5 17 11 5 7 14 3 27 -11
23 -25 37 -19 17 7 -11 15 -11 16 1 6 8 -7 21 -13 29 -13 11 0 9 5 -7 20 -12
11 -22 19 -24 19 -2 -1 -13 -4 -25 -6z"/>
<path d="M2298 2934 c-4 -4 -3 -15 3 -26 6 -11 8 -30 5 -43 -7 -27 9 -43 18
-19 14 37 -7 108 -26 88z"/>
<path d="M2349 2925 c-4 -3 0 -22 7 -43 7 -20 13 -46 14 -56 0 -14 3 -17 11
-9 6 6 8 25 4 46 -8 39 -27 72 -36 62z"/>
<path d="M2546 2923 c-9 -10 -7 -73 3 -73 5 0 11 16 13 36 4 34 -3 50 -16 37z"/>
<path d="M2617 2923 c-9 -8 -9 -56 -1 -77 12 -30 21 -16 20 29 -2 46 -8 60
-19 48z"/>
<path d="M3697 2890 l-38 -38 23 -16 c12 -9 17 -16 10 -16 -17 0 -15 -25 2
-40 8 -6 12 -18 9 -26 -3 -8 1 -14 8 -14 9 0 10 -3 4 -8 -12 -8 -16 -42 -6
-42 4 0 5 -14 3 -31 -4 -29 -3 -30 17 -20 24 13 23 11 26 72 1 26 5 51 9 57 3
5 0 25 -7 43 -8 19 -13 53 -12 77 1 23 0 42 -4 41 -3 0 -23 -18 -44 -39z"/>
<path d="M2406 2898 c4 -7 10 -28 14 -48 3 -19 10 -33 15 -30 12 6 7 61 -7 78
-13 16 -32 16 -22 0z"/>
<path d="M2690 2870 c0 -22 5 -40 10 -40 6 0 10 18 10 40 0 22 -4 40 -10 40
-5 0 -10 -18 -10 -40z"/>
<path d="M2749 2863 c-5 -14 -7 -34 -3 -42 5 -12 10 -7 19 19 17 44 17 50 5
50 -6 0 -15 -12 -21 -27z"/>
<path d="M3180 2842 c0 -21 83 -32 95 -12 4 6 -6 10 -22 10 -15 0 -38 3 -50 6
-13 4 -23 2 -23 -4z"/>
<path d="M3215 2800 c3 -5 13 -10 22 -10 9 0 21 -7 27 -14 17 -23 58 -29 81
-12 19 15 18 15 -20 17 -24 1 -31 3 -17 6 44 9 21 23 -39 23 -37 0 -58 -4 -54
-10z"/>
<path d="M3296 2711 c17 -17 94 -18 94 -1 0 6 -23 10 -52 10 -32 0 -48 -4 -42
-9z"/>
<path d="M3333 2675 c5 -13 87 -19 87 -7 0 6 -20 12 -45 14 -27 2 -44 -1 -42
-7z"/>
<path d="M3360 2630 c0 -5 6 -10 14 -10 8 0 16 -7 20 -15 3 -9 18 -15 40 -15
52 0 55 20 4 21 -30 2 -35 3 -15 6 44 7 31 23 -18 23 -25 0 -45 -4 -45 -10z"/>
<path d="M3503 2566 c-52 -21 -68 -36 -38 -36 28 0 95 32 95 46 0 8 -1 13 -2
13 -2 -1 -27 -11 -55 -23z"/>
<path d="M3550 2540 c-14 -4 -37 -11 -52 -14 -16 -4 -28 -11 -28 -17 0 -7 11
-8 30 -4 19 4 30 3 30 -4 0 -12 77 -15 104 -5 34 13 14 23 -36 18 -45 -4 -50
-3 -30 7 12 7 22 16 22 21 0 10 -6 9 -40 -2z"/>
<path d="M3685 2489 c-11 -4 -37 -8 -57 -8 -21 -1 -38 -6 -38 -12 0 -14 106
-7 121 8 15 15 -2 22 -26 12z"/>
<path d="M3907 2233 c-16 -15 -5 -22 26 -16 47 8 57 23 16 23 -20 0 -39 -3
-42 -7z"/>
<path d="M3900 2185 c0 -8 58 -35 75 -35 26 0 16 15 -18 28 -35 13 -57 15 -57
7z"/>
<path d="M4003 3239 c-24 -12 -43 -25 -43 -30 0 -13 22 -10 44 6 33 25 83 19
113 -12 17 -19 27 -24 30 -15 3 6 18 12 33 12 35 0 60 -32 60 -77 0 -18 5 -33
11 -33 19 0 4 90 -19 112 -11 12 -35 21 -58 22 -22 1 -53 10 -71 19 -41 22
-49 21 -100 -4z"/>
<path d="M4144 3027 c-4 -10 1 -37 11 -60 37 -89 44 -113 45 -145 0 -20 4 -31
10 -27 15 9 11 64 -6 110 -9 22 -24 63 -34 90 -14 39 -20 46 -26 32z"/>
<path d="M4219 2993 c-4 -26 6 -62 32 -116 16 -34 29 -74 29 -89 0 -15 5 -30
10 -33 22 -13 9 72 -20 133 -17 35 -30 72 -30 82 0 18 -19 39 -21 23z"/>
<path d="M4290 2916 c0 -8 11 -38 25 -68 14 -29 25 -65 25 -80 0 -16 5 -28 10
-28 19 0 10 61 -17 125 -27 62 -43 81 -43 51z"/>
<path d="M4360 2895 c0 -9 14 -42 30 -75 17 -33 30 -73 30 -90 0 -16 5 -30 10
-30 22 0 9 73 -26 140 -36 72 -44 81 -44 55z"/>
<path d="M4410 2860 c0 -5 9 -14 20 -20 29 -16 50 -63 50 -115 0 -43 12 -60
23 -32 7 17 -7 98 -21 124 -19 35 -72 67 -72 43z"/>
<path d="M4507 2864 c-13 -13 -8 -41 18 -96 14 -29 25 -70 25 -91 0 -23 4 -36
10 -32 17 10 11 79 -10 120 -12 22 -24 55 -28 73 -4 19 -11 30 -15 26z"/>
<path d="M4577 2794 c-3 -3 3 -18 14 -33 10 -14 22 -53 27 -86 4 -33 11 -59
17 -57 11 3 8 75 -6 118 -10 34 -42 68 -52 58z"/>
<path d="M1708 2890 c-30 -31 -34 -40 -18 -40 14 0 60 46 60 60 0 17 -13 11
-42 -20z"/>
<path d="M1731 2834 c-36 -39 -35 -56 3 -31 22 15 43 53 34 62 -2 2 -18 -12
-37 -31z"/>
<path d="M1750 2765 c-22 -23 -29 -35 -19 -35 9 0 25 10 36 23 50 55 35 66
-17 12z"/>
<path d="M3211 2586 c-23 -37 -25 -46 -12 -46 9 0 51 61 51 74 0 17 -21 2 -39
-28z"/>
<path d="M3237 2540 c-29 -45 -20 -64 12 -24 18 22 29 64 18 64 -2 0 -15 -18
-30 -40z"/>
<path d="M3273 2514 c-13 -20 -23 -39 -23 -44 0 -18 31 3 45 31 30 57 12 67
-22 13z"/>
<path d="M3320 2496 c0 -7 -9 -25 -21 -40 -16 -21 -17 -26 -5 -26 8 0 22 10
30 22 18 25 21 58 6 58 -5 0 -10 -6 -10 -14z"/>
<path d="M3373 2453 c-3 -10 -13 -26 -21 -36 -8 -9 -12 -20 -9 -24 9 -9 44 24
50 48 7 25 -11 36 -20 12z"/>
<path d="M3387 2389 c-22 -33 -24 -40 -10 -37 20 4 58 64 45 72 -5 3 -21 -13
-35 -35z"/>
<path d="M3415 2352 c-25 -14 -27 -17 -11 -20 20 -4 66 16 66 30 0 12 -21 8
-55 -10z"/>
<path d="M3440 2305 c-29 -31 -18 -46 13 -17 13 12 29 22 35 22 7 0 12 5 12
10 0 19 -37 10 -60 -15z"/>
<path d="M3517 2284 c-2 -3 -17 -6 -31 -8 -32 -3 -35 -20 -4 -24 26 -3 67 22
51 31 -6 4 -13 4 -16 1z"/>
<path d="M2938 1280 l-3 -100 62 0 c34 0 68 -3 77 -6 12 -4 16 0 16 15 0 19
-6 21 -55 21 -54 0 -55 0 -55 30 0 29 1 30 50 30 38 0 50 4 50 15 0 11 -12 15
-50 15 -47 0 -50 2 -50 25 0 24 3 25 55 25 42 0 55 3 55 15 0 12 -15 15 -74
15 l-75 0 -3 -100z"/>
<path d="M2770 1341 c-5 -11 -10 -40 -10 -65 0 -25 -3 -47 -8 -50 -4 -2 -19
22 -32 55 -20 47 -29 59 -48 59 -33 0 -36 -20 -21 -121 10 -71 16 -89 28 -87
17 4 18 15 8 98 l-7 55 28 -65 c20 -46 35 -66 49 -68 16 -2 21 4 26 35 4 21 7
54 8 73 0 30 2 32 9 14 5 -12 12 -42 15 -68 6 -37 11 -46 27 -46 14 0 18 5 15
18 -3 9 -11 54 -17 100 -12 76 -14 82 -36 82 -13 0 -28 -9 -34 -19z"/>
<path d="M3198 1259 c-22 -85 -23 -99 -10 -104 15 -6 32 10 32 31 0 11 32 44
43 44 4 0 13 -24 22 -54 12 -42 21 -55 39 -58 26 -5 26 -3 -7 90 l-15 44 44
27 c24 16 41 31 37 35 -13 13 -50 5 -85 -19 -50 -34 -59 -32 -47 7 12 44 12
45 -9 50 -16 5 -22 -9 -44 -93z"/>
<path d="M2526 1302 c-3 -5 0 -39 5 -76 13 -85 9 -98 -33 -94 -33 3 -33 4 -47
81 -12 63 -18 77 -33 77 -21 0 -22 -11 -4 -104 9 -44 20 -74 32 -83 46 -33
134 2 134 54 0 53 -24 153 -36 153 -7 0 -15 -4 -18 -8z"/>
<path d="M2220 1277 c-19 -10 -25 -20 -25 -47 0 -32 4 -37 45 -57 53 -25 62
-56 18 -61 -19 -2 -31 3 -40 17 -13 22 -48 29 -48 10 0 -47 76 -81 126 -58 25
12 29 20 29 54 0 38 -3 41 -47 63 -27 12 -48 29 -48 37 0 20 44 20 60 0 7 -8
20 -15 30 -15 30 0 11 41 -26 56 -40 17 -43 17 -74 1z"/>
<path d="M3456 1198 c-52 -86 -54 -93 -35 -96 12 -2 27 4 35 16 20 29 86 16
94 -18 4 -15 14 -26 27 -28 l21 -3 -20 98 c-32 155 -45 159 -122 31z m83 -25
c1 -16 -35 -17 -44 -3 -4 6 1 23 11 38 l18 27 7 -25 c4 -14 7 -31 8 -37z"/>
<path d="M3678 1273 c-23 -4 -26 -8 -23 -36 3 -18 7 -62 11 -99 5 -59 8 -68
25 -68 18 0 20 5 13 45 -5 40 -4 45 12 45 11 0 35 -18 54 -41 26 -30 42 -40
59 -37 22 3 21 4 -14 45 -34 41 -35 42 -15 53 27 15 28 75 1 90 -19 10 -69 11
-123 3z m100 -47 c5 -23 -14 -36 -50 -36 -23 0 -28 4 -28 24 0 18 7 26 23 29
37 7 52 3 55 -17z"/>
</g>
</svg>
